<svg xmlns="http://www.w3.org/2000/svg" viewBox="0 0 64 80" fill="none">
  <polygon points="32,8 52,30 44,60 20,60 12,30" fill="#2dd4bf" opacity="0.92"/>
  <polygon points="20,28 2,50 20,54 28,34" fill="#1a9e8f"/>
  <polygon points="44,28 62,50 44,54 36,34" fill="#1a9e8f"/>
  <polygon points="28,8 36,8 38,24 26,24" fill="#2dd4bf"/>
  <ellipse cx="32" cy="6" rx="7" ry="7" fill="#2dd4bf"/>
  <ellipse cx="35" cy="5" rx="2.5" ry="2.5" fill="#0a0e13"/>
  <polygon points="38,4 52,6 38,8" fill="#f59e0b"/>
  <line x1="26" y1="60" x2="22" y2="76" stroke="#2dd4bf" stroke-width="3.5" stroke-linecap="round"/>
  <line x1="38" y1="60" x2="42" y2="76" stroke="#2dd4bf" stroke-width="3.5" stroke-linecap="round"/>
  <line x1="22" y1="76" x2="13" y2="79" stroke="#2dd4bf" stroke-width="2" stroke-linecap="round"/>
  <line x1="22" y1="76" x2="31" y2="79" stroke="#2dd4bf" stroke-width="2" stroke-linecap="round"/>
  <line x1="42" y1="76" x2="33" y2="79" stroke="#2dd4bf" stroke-width="2" stroke-linecap="round"/>
  <line x1="42" y1="76" x2="51" y2="79" stroke="#2dd4bf" stroke-width="2" stroke-linecap="round"/>
</svg>
